<svg xmlns:dc="http://purl.org/dc/elements/1.1/" xmlns:cc="http://creativecommons.org/ns#" xmlns:rdf="http://www.w3.org/1999/02/22-rdf-syntax-ns#" xmlns:svg="http://www.w3.org/2000/svg" xmlns="http://www.w3.org/2000/svg" xmlns:sodipodi="http://sodipodi.sourceforge.net/DTD/sodipodi-0.dtd" xmlns:inkscape="http://www.inkscape.org/namespaces/inkscape" width="32" height="32" viewBox="0 0 8.4666665 8.4666669" version="1.1" id="svg8" inkscape:version="0.92.4 (5da689c313, 2019-01-14)" sodipodi:docname="20. Curriculum Regulation business, compliance, policy, management, legal.svg">
<defs id="defs2">
<pattern y="0" x="0" height="6" width="6" patternUnits="userSpaceOnUse" id="EMFhbasepattern"></pattern>
<pattern y="0" x="0" height="6" width="6" patternUnits="userSpaceOnUse" id="EMFhbasepattern-3"></pattern>
<pattern y="0" x="0" height="6" width="6" patternUnits="userSpaceOnUse" id="EMFhbasepattern-2"></pattern>
<pattern y="0" x="0" height="6" width="6" patternUnits="userSpaceOnUse" id="EMFhbasepattern-1"></pattern>
<pattern y="0" x="0" height="6" width="6" patternUnits="userSpaceOnUse" id="EMFhbasepattern-5"></pattern>
</defs>
<sodipodi:namedview id="base" pagecolor="#ffffff" bordercolor="#666666" borderopacity="1.0" inkscape:pageopacity="0.0" inkscape:pageshadow="2" inkscape:zoom="5.656854" inkscape:cx="-11.733867" inkscape:cy="3.9047765" inkscape:document-units="px" inkscape:current-layer="layer1" showgrid="false" units="px" inkscape:window-width="1280" inkscape:window-height="658" inkscape:window-x="-8" inkscape:window-y="-8" inkscape:window-maximized="1" showguides="true" guidecolor="#af0000" guideopacity="0.49803922" guidehicolor="#ff4b4b" guidehiopacity="0.49803922" inkscape:snap-global="true">
<inkscape:grid type="xygrid" id="grid815" empspacing="1" originx="0" originy="0" spacingx="0" spacingy="0" snapvisiblegridlinesonly="true" visible="true" enabled="true" dotted="false"></inkscape:grid>
</sodipodi:namedview>
<metadata id="metadata5">
<rdf:rdf>
<cc:work rdf:about="">
<dc:format>image/svg+xml</dc:format>
<dc:type rdf:resource="http://purl.org/dc/dcmitype/StillImage"></dc:type>
<dc:title></dc:title>
</cc:work>
</rdf:rdf>
</metadata>
<g inkscape:label="Guides" inkscape:groupmode="layer" id="layer1" transform="translate(0,-288.53332)">
<path style="color: rgb(0, 0, 0); font: medium sans-serif; font-feature-settings: normal; text-indent: 0px; text-align: start; text-decoration: none solid rgb(0, 0, 0); letter-spacing: normal; word-spacing: normal; text-transform: none; writing-mode: lr-tb; direction: ltr; text-orientation: mixed; dominant-baseline: auto; baseline-shift: baseline; text-anchor: start; white-space: normal; clip-rule: nonzero; display: inline; overflow: visible; visibility: visible; opacity: 1; isolation: auto; mix-blend-mode: normal; color-interpolation: srgb; color-interpolation-filters: linearrgb; vector-effect: none; fill: rgb(255, 255, 255); fill-opacity: 1; fill-rule: nonzero; stroke: none; stroke-width: 0.264583; stroke-linecap: round; stroke-linejoin: miter; stroke-miterlimit: 4; stroke-dasharray: none; stroke-dashoffset: 0; stroke-opacity: 1; paint-order: normal; color-rendering: auto; image-rendering: auto; shape-rendering: auto; text-rendering: auto;" d="m 1.154781,289.32707 c -0.34079586,0 -0.62080486,0.29007 -0.62080486,0.64309 v 0.58354 c -0.00641,0.0303 -0.00641,0.0618 0,0.0922 v 3.61786 l 0.0089,0.0319 c 0.1359772,0.45482 0.3125438,0.90684 0.46540076,1.35911 l 0.1740197,0.51983 0.2112518,-0.50391 c 0.1848751,-0.44178 0.3816255,-0.95767 0.541484,-1.35576 l 0.015379,-0.0419 v -4.30286 c 0,-0.35302 -0.280009,-0.6431 -0.6208048,-0.6431 z m 1.3678748,0.0788 v 6.79136 h 0.1651165 v 0.009 h 0.2080141 1.94821 v -0.009 h 1.8703197 c 1.6365934,-1.69536 -0.4134115,0.44651 1.2231819,-1.24886 v -5.54253 z M 1.154781,289.75802 H 1.32961 c 0.1183694,0 0.208014,0.0895 0.208014,0.21213 v 0.41502 H 0.95000434 v -0.41502 c 0,-0.12266 0.086406,-0.21213 0.20477666,-0.21213 z m 1.7839034,0.0754 h 4.5827855 v 4.44289 H 6.0928904 v 1.49242 H 4.8253803 c -0.037556,-0.25265 -0.1341386,-0.49333 -0.2776219,-0.69088 -0.071558,-0.0985 -0.1597077,-0.18218 -0.254959,-0.25487 0.1292674,-0.14067 0.2088242,-0.33163 0.2088235,-0.53996 4e-7,-0.14037 -0.038067,-0.27186 -0.1011742,-0.38653 h 2.6799018 c 0.2759935,-10e-4 0.2759935,-0.42955 0,-0.43095 H 3.3757566 c -0.1638558,5.1e-4 -0.2628122,0.18799 -0.174829,0.33118 -0.103226,0.13419 -0.1675449,0.30263 -0.1675445,0.4863 -4e-7,0.20765 0.079477,0.39774 0.2080141,0.53828 -0.096444,0.0729 -0.1846339,0.15751 -0.2565775,0.25655 -0.017107,0.0235 -0.030326,0.0508 -0.046135,0.0754 z m 3.1922476,0.5475 c -0.00783,-1.8e-4 -0.01567,10e-5 -0.023473,8.6e-4 H 4.348647 c -0.00593,-2.7e-4 -0.011874,-2.7e-4 -0.017807,0 -0.253534,0.0321 -0.237454,0.41824 0.017807,0.42761 h 1.758812 c 0.2836219,0.0255 0.3080588,-0.42056 0.023473,-0.42845 z m -5.18092766,0.43515 H 1.537624 v 3.37138 c -0.097088,0.24253 -0.2113115,0.52251 -0.3213289,0.79901 -0.09361,-0.26501 -0.1894722,-0.53505 -0.26629076,-0.78897 z m 2.42575226,0.41503 c -0.2801312,-0.003 -0.2801312,0.43386 0,0.43096 h 3.7045939 c 0.2801311,0.003 0.2801311,-0.43385 0,-0.43096 z m 0,0.89379 c -0.2759934,0.001 -0.2759934,0.42954 0,0.43095 h 3.7045939 c 0.2759935,-10e-4 0.2759935,-0.42956 0,-0.43095 z m 3.7280663,0.67074 c -0.00783,-1.8e-4 -0.01567,10e-5 -0.023473,8.6e-4 H 3.3757566 c -0.00593,-2.6e-4 -0.011873,-2.6e-4 -0.017807,0 -0.253534,0.0321 -0.2374537,0.41825 0.017807,0.42761 h 3.7045937 c 0.2836219,0.0255 0.3080589,-0.42054 0.023473,-0.42845 z m -3.3363196,1.14196 c 0.1756835,0 0.318092,0.14784 0.3180915,0.34544 5e-7,0.19412 -0.1378454,0.34183 -0.3091884,0.34712 -0.00311,-4e-5 -0.00579,-0.002 -0.0089,-0.002 -0.00311,0 -0.0058,0.002 -0.00891,0.002 -0.1714479,-0.005 -0.3124262,-0.15295 -0.3124258,-0.34712 -4e-7,-0.19763 0.145645,-0.34544 0.3213298,-0.34544 z m 2.7414154,0.76633 h 1.0029746 c -1.0029746,1.03012 0,0 -1.0029746,1.03012 z m -3.1064521,0.53409 0.3605847,0.3425 0.3719164,-0.34083 c 0.028381,0.0292 0.056496,0.0597 0.082558,0.0956 0.085097,0.11716 0.1055066,0.27997 0.1384063,0.43347 H 3.1766456 c 0.033004,-0.15364 0.056487,-0.31624 0.1416439,-0.43347 0.026638,-0.0367 0.055124,-0.0675 0.084177,-0.0973 z" id="path1245-2" inkscape:connector-curvature="0" sodipodi:nodetypes="sscccccccccssscccccccccccsssccssccccccsccccccccccccccccccccccccccccccccccccccccccsccsccscccccccccccccccc"></path>
</g>
</svg>